<mxfile host="app.diagrams.net" modified="2023-09-18T07:33:32.203Z" agent="Mozilla/5.0 (Windows NT 10.0; Win64; x64) AppleWebKit/537.36 (KHTML, like Gecko) Chrome/116.0.0.0 Safari/537.36 Edg/116.0.1938.54" version="21.6.2" etag="i7Cfdt3VorLxVkx2PazL" type="github">
  <diagram name="Page-1" id="rL9vnj_1i4WrHyanLI7t">
    <mxGraphModel>
      <root>
        <mxCell id="0" />
        <mxCell id="1" parent="0" />
      </root>
    </mxGraphModel>
  </diagram>
</mxfile>
